<?xml version="1.0" encoding="UTF-8" standalone="no"?>
<!-- Created with Inkscape (http://www.inkscape.org/) -->

<svg
   xmlns:dc="http://purl.org/dc/elements/1.1/"
   xmlns:cc="http://creativecommons.org/ns#"
   xmlns:rdf="http://www.w3.org/1999/02/22-rdf-syntax-ns#"
   xmlns:svg="http://www.w3.org/2000/svg"
   xmlns="http://www.w3.org/2000/svg"
   xmlns:xlink="http://www.w3.org/1999/xlink"
   xmlns:sodipodi="http://sodipodi.sourceforge.net/DTD/sodipodi-0.dtd"
   xmlns:inkscape="http://www.inkscape.org/namespaces/inkscape"
   id="svg2"
   version="1.1"
   inkscape:version="0.48.4 r9939"
   width="1750"
   height="2795.525"
   xml:space="preserve"
   sodipodi:docname="sfotip_desktop_pag10.svg"
   inkscape:export-filename="/home/keoh/Escritorio/sfotipy/design/desktop/svg/sfotip_desktop_pag10.png"
   inkscape:export-xdpi="90"
   inkscape:export-ydpi="90"><metadata
     id="metadata8"><rdf:RDF><cc:Work
         rdf:about=""><dc:format>image/svg+xml</dc:format><dc:type
           rdf:resource="http://purl.org/dc/dcmitype/StillImage" /><dc:title></dc:title></cc:Work></rdf:RDF></metadata><defs
     id="defs6"><clipPath
       clipPathUnits="userSpaceOnUse"
       id="clipPath16"><path
         d="m 0,2236.415 1400,0 L 1400,0 0,0 0,2236.415 z"
         id="path18" /></clipPath><clipPath
       clipPathUnits="userSpaceOnUse"
       id="clipPath24"><path
         d="m 209.587,1169.3 980.003,0 0,-1 -980.003,0 0,1 z"
         id="path26" /></clipPath><clipPath
       clipPathUnits="userSpaceOnUse"
       id="clipPath40"><path
         d="m 406.367,1519.68 582.688,0 0,-82.74 -582.688,0 0,82.74 z"
         id="path42" /></clipPath><clipPath
       clipPathUnits="userSpaceOnUse"
       id="clipPath60"><path
         d="m 0,2236.415 1400,0 L 1400,0 0,0 0,2236.415 z"
         id="path62" /></clipPath><clipPath
       clipPathUnits="userSpaceOnUse"
       id="clipPath76"><path
         d="m 0,2236.415 1400,0 L 1400,0 0,0 0,2236.415 z"
         id="path78" /></clipPath><clipPath
       clipPathUnits="userSpaceOnUse"
       id="clipPath84"><path
         d="m 406.367,1420.65 582.688,0 0,-82.74 -582.688,0 0,82.74 z"
         id="path86" /></clipPath><clipPath
       clipPathUnits="userSpaceOnUse"
       id="clipPath100"><path
         d="m 478.512,1496.3 252.211,0 0,-35.02 -252.211,0 0,35.02 z"
         id="path102" /></clipPath><clipPath
       clipPathUnits="userSpaceOnUse"
       id="clipPath124"><path
         d="m 477.654,1395.57 258.879,0 0,-35.02 -258.879,0 0,35.02 z"
         id="path126" /></clipPath><clipPath
       clipPathUnits="userSpaceOnUse"
       id="clipPath148"><path
         d="m 0,1636.759 1400,0 0,599.656 -1400,0 0,-599.656 z"
         id="path150" /></clipPath><clipPath
       clipPathUnits="userSpaceOnUse"
       id="clipPath164"><path
         d="m 0,2236.415 1400,0 L 1400,0 0,0 0,2236.415 z"
         id="path166" /></clipPath><clipPath
       clipPathUnits="userSpaceOnUse"
       id="clipPath186"><path
         d="m 0,2236.415 1400,0 L 1400,0 0,0 0,2236.415 z"
         id="path188" /></clipPath><clipPath
       clipPathUnits="userSpaceOnUse"
       id="clipPath206"><path
         d="m 0,2236.415 1400,0 L 1400,0 0,0 0,2236.415 z"
         id="path208" /></clipPath><clipPath
       clipPathUnits="userSpaceOnUse"
       id="clipPath226"><path
         d="m 0,2236.415 1400,0 L 1400,0 0,0 0,2236.415 z"
         id="path228" /></clipPath><clipPath
       clipPathUnits="userSpaceOnUse"
       id="clipPath246"><path
         d="m 0,2236.415 1400,0 L 1400,0 0,0 0,2236.415 z"
         id="path248" /></clipPath><clipPath
       clipPathUnits="userSpaceOnUse"
       id="clipPath328"><path
         d="m 300.485,973.689 c 0,-83.173 67.426,-150.6 150.601,-150.6 l 0,0 c 83.174,0 150.601,67.427 150.601,150.6 l 0,0 c 0,83.176 -67.427,150.602 -150.601,150.602 l 0,0 c -83.175,0 -150.601,-67.426 -150.601,-150.602"
         id="path330" /></clipPath><clipPath
       clipPathUnits="userSpaceOnUse"
       id="clipPath340"><path
         d="m 927.367,794.176 c -76.823,-6.853 -137.053,-71.395 -137.053,-150 l 0,0 c 0,-78.611 60.233,-143.154 137.063,-150 l 0,0 27.077,0 c 76.83,6.846 137.062,71.389 137.062,150 l 0,0 c 0,78.605 -60.229,143.147 -137.052,150 l 0,0 -27.097,0 z"
         id="path342" /></clipPath><clipPath
       clipPathUnits="userSpaceOnUse"
       id="clipPath352"><path
         d="m 0,2236.415 1400,0 L 1400,0 0,0 0,2236.415 z"
         id="path354" /></clipPath><clipPath
       clipPathUnits="userSpaceOnUse"
       id="clipPath366"><path
         d="m 0,2236.415 1400,0 L 1400,0 0,0 0,2236.415 z"
         id="path368" /></clipPath><clipPath
       clipPathUnits="userSpaceOnUse"
       id="clipPath382"><path
         d="m 0,2236.415 1400,0 L 1400,0 0,0 0,2236.415 z"
         id="path384" /></clipPath><clipPath
       clipPathUnits="userSpaceOnUse"
       id="clipPath434"><path
         d="M 437.548,475.021 C 360.717,468.174 300.485,403.63 300.485,325.02 l 0,0 c 0,-78.606 60.229,-143.146 137.053,-150 l 0,0 27.097,0 c 76.822,6.854 137.052,71.394 137.052,150 l 0,0 c 0,78.61 -60.233,143.154 -137.063,150.001 l 0,0 -27.076,0 z"
         id="path436" /></clipPath></defs><sodipodi:namedview
     pagecolor="#ffffff"
     bordercolor="#666666"
     borderopacity="1"
     objecttolerance="10"
     gridtolerance="10"
     guidetolerance="10"
     inkscape:pageopacity="0"
     inkscape:pageshadow="2"
     inkscape:window-width="1918"
     inkscape:window-height="1029"
     id="namedview4"
     showgrid="false"
     inkscape:zoom="0.41936371"
     inkscape:cx="891.43401"
     inkscape:cy="1056.7097"
     inkscape:window-x="0"
     inkscape:window-y="0"
     inkscape:window-maximized="1"
     inkscape:current-layer="g10" /><g
     id="g10"
     inkscape:groupmode="layer"
     inkscape:label="sfotip_desktop"
     transform="matrix(1.25,0,0,-1.25,0,2795.525)"><rect
       style="fill:#ffffff"
       id="rect3197"
       width="1752.6553"
       height="1945.8049"
       x="2.3845649"
       y="749.56818"
       transform="matrix(0.8,0,0,-0.8,0,2236.42)" /><g
       id="g12"><g
         id="g14"
         clip-path="url(#clipPath16)"><g
           id="g20"><g
             id="g22" /><g
             id="g28"><g
               clip-path="url(#clipPath24)"
               id="g30"><g
                 transform="translate(209.5869,1168.7998)"
                 id="g32"><path
                   d="M 0,0 980,0"
                   style="fill:none;stroke:#353535;stroke-opacity:1;stroke-width:1;stroke-linecap:butt;stroke-linejoin:miter;stroke-miterlimit:10;stroke-dasharray:none"
                   id="path34" /></g></g></g></g><g
           id="g36"><g
             id="g38" /><g
             id="g44"><g
               clip-path="url(#clipPath40)"
               id="g46"><g
                 transform="translate(988.5547,1441.4385)"
                 id="g48"><path
                   d="m 0,0 c 0,-2.2 -1.8,-4 -4,-4 l -573.687,0 c -2.201,0 -4,1.8 -4,4 l 0,73.744 c 0,2.2 1.799,4 4,4 l 573.687,0 c 2.2,0 4,-1.8 4,-4 L 0,0 z"
                   style="fill:none;stroke:#686868;stroke-opacity:1;stroke-width:1;stroke-linecap:butt;stroke-linejoin:miter;stroke-miterlimit:10;stroke-dasharray:none"
                   id="path50" /></g></g></g></g></g></g><text
       transform="matrix(1,0,0,-1,648.8887,1561.709)"
       id="text52"><tspan
         style="fill:#686868;fill-opacity:1;fill-rule:nonzero;stroke:none;font-family:Myriad Pro;font-variant:normal;font-weight:normal;font-stretch:normal;font-size:38.0387;writing-mode:lr;-inkscape-font-specification:VarelaRound-Regular"
         x="0 17.4217246 38.3049709 59.5686042 67.6328086 76.5338644"
         y="0"
         sodipodi:role="line"
         id="tspan54">Log in</tspan></text>
<g
       id="g56"><g
         id="g58"
         clip-path="url(#clipPath60)"><g
           id="g64"
           transform="translate(989.0078,1225.2686)"><path
             d="m 0,0 c 0,-2.2 -1.8,-4 -4,-4 l -573.688,0 c -2.201,0 -4,1.8 -4,4 l 0,73.745 c 0,2.2 1.799,4 4,4 l 573.688,0 c 2.2,0 4,-1.8 4,-4 L 0,0 z"
             style="fill:#cc2f6f;fill-opacity:1;fill-rule:nonzero;stroke:none"
             id="path66" /></g></g></g><text
       transform="matrix(1,0,0,-1,655.2344,1250.6475)"
       id="text68"><tspan
         style="fill:#ffffff;fill-opacity:1;fill-rule:nonzero;stroke:none;font-family:Myriad Pro;font-variant:normal;font-weight:normal;font-stretch:normal;font-size:36.55;writing-mode:lr;-inkscape-font-specification:VarelaRound-Regular"
         x="0 16.7399 36.80585 57.018 65.5707"
         y="0"
         sodipodi:role="line"
         id="tspan70">Login</tspan></text>
<g
       id="g72"><g
         id="g74"
         clip-path="url(#clipPath76)"><g
           id="g80"><g
             id="g82" /><g
             id="g88"><g
               clip-path="url(#clipPath84)"
               id="g90"><g
                 transform="translate(988.5547,1342.4082)"
                 id="g92"><path
                   d="m 0,0 c 0,-2.2 -1.8,-4 -4,-4 l -573.687,0 c -2.201,0 -4,1.8 -4,4 l 0,73.745 c 0,2.2 1.799,4 4,4 l 573.687,0 c 2.2,0 4,-1.8 4,-4 L 0,0 z"
                   style="fill:none;stroke:#686868;stroke-opacity:1;stroke-width:1;stroke-linecap:butt;stroke-linejoin:miter;stroke-miterlimit:10;stroke-dasharray:none"
                   id="path94" /></g></g></g></g><g
           id="g96"><g
             id="g98" /><g
             id="g104"><g
               clip-path="url(#clipPath100)"
               id="g106"><text
                 transform="matrix(1,0,0,-1,478.5122,1469.3301)"
                 id="text108"><tspan
                   style="fill:#b7b7b7;fill-opacity:1;fill-rule:nonzero;stroke:none;font-family:Myriad Pro;font-variant:normal;font-weight:normal;font-stretch:normal;font-size:32.2195;writing-mode:lr;-inkscape-font-specification:VarelaRound-Regular"
                   x="0 20.6526995 33.4116215 49.553591 60.2182455 78.100068 93.629867 120.50093 136.6428995 143.4734335 161.161939 171.6977155 178.5282495 194.670219 221.541282 237.071081 244.610444"
                   y="0"
                   sodipodi:role="line"
                   id="tspan110">Username or email</tspan></text>
</g></g></g><g
           id="g112"
           transform="translate(448.7988,1490.9795)"><path
             d="m 0,0 c 0,-5.423 -4.396,-9.819 -9.82,-9.819 -5.424,0 -9.821,4.396 -9.821,9.819 0,5.424 4.397,9.821 9.821,9.821 C -4.396,9.821 0,5.424 0,0"
             style="fill:#b7b7b7;fill-opacity:1;fill-rule:nonzero;stroke:none"
             id="path114" /></g><g
           id="g116"
           transform="translate(453.9277,1463.3271)"><path
             d="m 0,0 -29.9,0 0,10.036 c 0,4.899 4.007,8.906 8.906,8.906 l 12.088,0 C -4.007,18.942 0,14.935 0,10.036 L 0,0 z"
             style="fill:#b7b7b7;fill-opacity:1;fill-rule:nonzero;stroke:none"
             id="path118" /></g><g
           id="g120"><g
             id="g122" /><g
             id="g128"><g
               clip-path="url(#clipPath124)"
               id="g130"><text
                 transform="matrix(1,0,0,-1,477.6538,1368.6006)"
                 id="text132"><tspan
                   style="fill:#b7b7b7;fill-opacity:1;fill-rule:nonzero;stroke:none;font-family:Myriad Pro;font-variant:normal;font-weight:normal;font-stretch:normal;font-size:32.2195;writing-mode:lr;-inkscape-font-specification:VarelaRound-Regular"
                   x="0 18.68731 36.5691325 54.257638 71.9461435 84.7050655 100.847035 107.677569 123.207368 130.037902 148.3707975 163.9005965 176.6595185 189.4184405 212.8097975 230.498303 240.7118845"
                   y="0"
                   sodipodi:role="line"
                   id="tspan134">Choose a password</tspan></text>
</g></g></g><g
           id="g136"
           transform="translate(455.2471,1363.7246)"><path
             d="m 0,0 c 0,-1.411 -1.153,-2.564 -2.563,-2.564 l -25.639,0 c -1.41,0 -2.563,1.153 -2.563,2.564 l 0,19.086 c 0,1.41 1.153,2.563 2.563,2.563 l 25.639,0 C -1.153,21.649 0,20.496 0,19.086 L 0,0 z"
             style="fill:#b7b7b7;fill-opacity:1;fill-rule:nonzero;stroke:none"
             id="path138" /></g><g
           id="g140"
           transform="translate(436.6885,1397.9277)"><path
             d="m 0,0 c -2.828,0 -5.128,-2.301 -5.128,-5.128 l 0,-12.857 c 0,-2.828 2.3,-5.128 5.128,-5.128 l 6.354,0 c 2.827,0 5.126,2.3 5.126,5.128 l 0,12.857 C 11.48,-2.301 9.181,0 6.354,0 L 0,0 z m 6.354,-27.386 -6.354,0 c -5.185,0 -9.401,4.216 -9.401,9.401 l 0,12.857 c 0,5.184 4.216,9.4 9.401,9.4 l 6.354,0 c 5.183,0 9.4,-4.216 9.4,-9.4 l 0,-12.857 c 0,-5.185 -4.217,-9.401 -9.4,-9.401"
             style="fill:#b7b7b7;fill-opacity:1;fill-rule:nonzero;stroke:none"
             id="path142" /></g></g></g><g
       id="g144"><g
         id="g146"
         clip-path="url(#clipPath148)"><g
           id="g152"
           transform="matrix(1400,0,0,803,0,1480.1631)"><image
             sodipodi:absref="/home/keoh/Escritorio/sfotipy/design/desktop/svg/sfotip_desktop_img0.png"
             xlink:href="sfotip_desktop_img0.png"
             id="image154"
             transform="matrix(1,0,0,-1,0,1)"
             height="1"
             width="1" /></g></g></g><text
       transform="matrix(1,0,0,-1,1117.272,2162.5254)"
       id="text156"><tspan
         style="fill:#cc2f6f;fill-opacity:1;fill-rule:nonzero;stroke:none;font-family:Myriad Pro;font-variant:normal;font-weight:normal;font-stretch:normal;font-size:24;writing-mode:lr;-inkscape-font-specification:VarelaRound-Regular"
         x="0 10.992 24.168 37.584 42.672 48.288"
         y="0"
         sodipodi:role="line"
         id="tspan158">Log in</tspan></text>
<g
       id="g160"><g
         id="g162"
         clip-path="url(#clipPath164)"><g
           id="g168"
           transform="translate(1117.2715,2160.126)"><path
             d="M 0,0 0,0 61.607,0 0,0 z"
             style="fill:none;stroke:#cc2f6f;stroke-opacity:1;stroke-width:1.2;stroke-linecap:butt;stroke-linejoin:miter;stroke-miterlimit:10;stroke-dasharray:none"
             id="path170" /></g><g
           id="g172"
           transform="translate(871.5449,1828.7471)"><path
             d="m 0,0 c 0,-2.2 -1.8,-4 -4,-4 l -329.936,0 c -2.2,0 -4,1.8 -4,4 l 0,63.191 c 0,2.201 1.8,4 4,4 l 329.936,0 c 2.2,0 4,-1.799 4,-4 L 0,0 z"
             style="fill:#3d5a98;fill-opacity:1;fill-rule:nonzero;stroke:none"
             id="path174" /></g></g></g><text
       transform="matrix(0.99998902,0,0,-1,382.9497,2015.5586)"
       id="text176"><tspan
         style="fill:#ffffff;fill-opacity:1;fill-rule:nonzero;stroke:none;font-family:Myriad Pro;font-variant:normal;font-weight:normal;font-stretch:normal;font-size:54.6306;writing-mode:lr;-inkscape-font-specification:VarelaRound-Regular"
         x="0 23.2726356 53.264835 84.0764934 110.4084426 121.9901298 134.8829514 161.2149006 172.7965878 218.3585082 248.4599688 270.0936864 282.8772468 307.3517556 333.6837048 345.265392 376.0224198 406.1238804 433.493811 445.0754982 462.8304432 490.2003738 501.782061 532.3205664 562.422027 584.0557446 602.1384732 628.4704224 639.7789566"
         y="0"
         sodipodi:role="line"
         id="tspan178">Toda la musica que te gusta, </tspan><tspan
         style="fill:#ffffff;fill-opacity:1;fill-rule:nonzero;stroke:none;font-family:Myriad Pro;font-variant:normal;font-weight:normal;font-stretch:normal;font-size:54.6306;writing-mode:lr;-inkscape-font-specification:VarelaRound-Regular"
         x="144.497937 171.8678676 202.1878506 213.7695378 231.5244828 261.5166822 292.3283406 318.6602898 340.2940074 351.8756946 382.960506 409.2924552 428.4677958 446.2227408 473.5926714"
         y="55.832473"
         sodipodi:role="line"
         id="tspan180">en todas partes</tspan></text>
<g
       id="g182"><g
         id="g184"
         clip-path="url(#clipPath186)"><g
           id="g190"
           transform="translate(571.416,1844.1104)"><path
             d="m 0,0 0,14.81 4.97,0 0.744,5.77 -5.714,0 0,3.684 c 0,1.672 0.464,2.809 2.859,2.809 l 3.057,0.001 0,5.162 c -0.529,0.071 -2.344,0.228 -4.453,0.228 -4.407,0 -7.422,-2.689 -7.422,-7.63 l 0,-4.254 -4.984,0 0,-5.77 4.984,0 L -5.959,0 0,0 z"
             style="fill:#ffffff;fill-opacity:1;fill-rule:nonzero;stroke:none"
             id="path192" /></g><g
           id="g194"
           transform="translate(604.1943,1836.0996)"><path
             d="M 0,0 0,47.333"
             style="fill:none;stroke:#243554;stroke-opacity:1;stroke-width:2;stroke-linecap:butt;stroke-linejoin:miter;stroke-miterlimit:10;stroke-dasharray:none"
             id="path196" /></g></g></g><text
       transform="matrix(1,0,0,-1,616.436,1853.2827)"
       id="text198"><tspan
         style="fill:#ffffff;fill-opacity:1;fill-rule:nonzero;stroke:none;font-family:Myriad Pro;font-variant:normal;font-weight:normal;font-stretch:normal;font-size:19;writing-mode:lr;-inkscape-font-specification:Varela"
         x="0 10.811 21.242 31.787 41.306 50.065 56.354 65.436 71.611 81.13 85.158 93.5579 103.9889 114.5339 118.5619 126.9599 136.1179 144.5159 154.0349 164.8459 175.2769 185.7079"
         y="0"
         sodipodi:role="line"
         id="tspan200">Conéctate con Facebook</tspan></text>
<g
       id="g202"><g
         id="g204"
         clip-path="url(#clipPath206)"><g
           id="g210"
           transform="translate(870.0488,1746.5039)"><path
             d="m 0,0 c 0,-2.2 -1.8,-4 -4,-4 l -329.936,0 c -2.2,0 -4,1.8 -4,4 l 0,63.191 c 0,2.201 1.8,4 4,4 l 329.936,0 c 2.2,0 4,-1.799 4,-4 L 0,0 z"
             style="fill:#5fa9dd;fill-opacity:1;fill-rule:nonzero;stroke:none"
             id="path212" /></g><g
           id="g214"
           transform="translate(604.1943,1753.96)"><path
             d="M 0,0 0,47.336"
             style="fill:none;stroke:#478bb5;stroke-opacity:1;stroke-width:2;stroke-linecap:butt;stroke-linejoin:miter;stroke-miterlimit:10;stroke-dasharray:none"
             id="path216" /></g></g></g><text
       transform="matrix(1,0,0,-1,616.436,1771.146)"
       id="text218"><tspan
         style="fill:#ffffff;fill-opacity:1;fill-rule:nonzero;stroke:none;font-family:Myriad Pro;font-variant:normal;font-weight:normal;font-stretch:normal;font-size:19;writing-mode:lr;-inkscape-font-specification:Varela"
         x="0 10.811 21.242 31.787 41.306 50.065 56.354 65.436 71.611 81.13 85.158 93.5579 103.9889 114.5339 117.7829 126.4659 140.4499 144.8959 151.1849 157.3599 166.8789"
         y="0"
         sodipodi:role="line"
         id="tspan220">Conéctate con Twitter</tspan></text>
<g
       id="g222"><g
         id="g224"
         clip-path="url(#clipPath226)"><g
           id="g230"
           transform="translate(586.4355,1789.0811)"><path
             d="m 0,0 c -1.291,-0.574 -2.677,-0.959 -4.132,-1.134 1.486,0.892 2.627,2.3 3.163,3.982 -1.39,-0.827 -2.929,-1.424 -4.568,-1.747 -1.313,1.399 -3.182,2.272 -5.252,2.272 -3.973,0 -7.193,-3.221 -7.193,-7.194 0,-0.565 0.062,-1.113 0.185,-1.64 -5.979,0.3 -11.281,3.164 -14.83,7.517 -0.619,-1.062 -0.974,-2.298 -0.974,-3.616 0,-2.499 1.271,-4.7 3.201,-5.989 -1.18,0.037 -2.288,0.361 -3.258,0.899 l 0,-0.09 c 0,-3.487 2.478,-6.393 5.77,-7.054 -0.603,-0.165 -1.239,-0.252 -1.895,-0.252 -0.463,0 -0.914,0.044 -1.354,0.128 0.915,-2.857 3.573,-4.937 6.721,-4.996 -2.462,-1.93 -5.564,-3.08 -8.935,-3.08 -0.581,0 -1.153,0.033 -1.716,0.101 3.184,-2.042 6.965,-3.233 11.028,-3.233 13.233,0 20.471,10.962 20.471,20.47 0,0.313 -0.007,0.623 -0.022,0.931 C -2.184,-2.711 -0.964,-1.444 0,0"
             style="fill:#ffffff;fill-opacity:1;fill-rule:nonzero;stroke:none"
             id="path232" /></g></g></g><text
       transform="matrix(1,0,0,-1,614.667,1697.9893)"
       id="text234"><tspan
         style="fill:#ffffff;fill-opacity:1;fill-rule:nonzero;stroke:none;font-family:Myriad Pro;font-variant:normal;font-weight:normal;font-stretch:normal;font-size:24;writing-mode:lr;-inkscape-font-specification:VarelaRound-Regular"
         x="0 13.176"
         y="0"
         sodipodi:role="line"
         id="tspan236">or</tspan><tspan
         style="fill:#353535;fill-opacity:1;fill-rule:nonzero;stroke:none;font-family:Myriad Pro;font-variant:normal;font-weight:normal;font-stretch:normal;font-size:24;writing-mode:lr;-inkscape-font-specification:VarelaRound-Regular"
         x="21.024"
         y="0"
         id="tspan238" /><tspan
         style="fill:#cc2f6f;fill-opacity:1;fill-rule:nonzero;stroke:none;font-family:Myriad Pro;font-variant:normal;font-weight:normal;font-stretch:normal;font-size:24;writing-mode:lr;-inkscape-font-specification:VarelaRound-Regular"
         x="26.112 39.96 47.568 59.592 71.064 78.864 90.888 95.976 107.544 118.152 128.7624 141.9384 155.1624 168.3864"
         y="0"
         sodipodi:role="line"
         id="tspan240">Create account</tspan></text>
<g
       id="g242"><g
         id="g244"
         clip-path="url(#clipPath246)"><g
           id="g250"
           transform="translate(640.7783,1695.5898)"><path
             d="M 0,0 0,0 150.215,0 0,0 z"
             style="fill:none;stroke:#cc2f6f;stroke-opacity:1;stroke-width:1.2;stroke-linecap:butt;stroke-linejoin:miter;stroke-miterlimit:10;stroke-dasharray:none"
             id="path252" /></g><g
           id="g254"
           transform="translate(213.3545,2150.1699)"><path
             d="m 0,0 c -4.345,0 -9.942,1.398 -13.109,3.24 l 1.767,7.071 c 2.798,-1.621 7.88,-3.093 11.637,-3.093 2.651,0 4.565,1.03 4.565,3.019 0,2.504 -1.547,3.314 -7.585,5.67 -5.671,2.21 -9.354,4.198 -9.354,10.458 0,7.145 5.819,11.048 13.404,11.048 4.272,0 8.765,-1.326 11.27,-2.725 l -1.77,-6.998 c -1.914,0.958 -5.89,2.064 -8.91,2.064 -3.314,0 -4.861,-1.032 -4.861,-2.946 0,-1.915 2.43,-2.8 6.629,-4.346 C 10.237,20.032 13.92,16.792 13.92,11.048 13.92,3.756 7.365,0 0,0"
             style="fill:#cc2f6f;fill-opacity:1;fill-rule:nonzero;stroke:none"
             id="path256" /></g><g
           id="g258"
           transform="translate(229.1152,2186.5518)"><path
             d="m 0,0 5.083,0 0,3.02 c 0,11.709 7.659,15.097 14.065,15.097 1.327,0 3.241,-0.147 4.051,-0.442 l -1.031,-7.143 -0.883,0 c -6.26,0 -7.218,-3.241 -7.218,-7.733 l 0,-2.799 7.291,0 0,-6.923 -7.291,0 0,-28.428 -8.984,0 0,28.428 L 0,-6.923 0,0 z"
             style="fill:#cc2f6f;fill-opacity:1;fill-rule:nonzero;stroke:none"
             id="path260" /></g><g
           id="g262"
           transform="translate(293.8525,2186.5518)"><path
             d="m 0,0 0.003,0 4.345,8.764 4.565,0 0,-8.764 9.575,0 0,-6.85 -9.575,0 0,-18.264 c 0,-2.062 0.885,-3.534 2.8,-3.534 2.136,0 4.786,0.809 6.26,1.325 l 1.03,-6.629 c -1.914,-1.251 -5.67,-2.43 -8.91,-2.43 -6.261,0 -10.09,2.945 -10.09,10.531 l 0,19.001 L 0,-6.85 0,0 z"
             style="fill:#cc2f6f;fill-opacity:1;fill-rule:nonzero;stroke:none"
             id="path264" /></g><g
           id="g266"
           transform="translate(318.5273,2185.7412)"><path
             d="m 0,0 8.986,1.842 0,-36.382 L 0,-34.54 0,0 z m -1.252,12.962 c 0,3.167 2.504,5.671 5.744,5.671 3.315,0 5.966,-2.504 5.966,-5.671 0,-3.093 -2.651,-5.597 -5.966,-5.597 -3.24,0 -5.744,2.504 -5.744,5.597"
             style="fill:#cc2f6f;fill-opacity:1;fill-rule:nonzero;stroke:none"
             id="path268" /></g><g
           id="g270"
           transform="translate(344.1562,2159.6699)"><path
             d="m 0,0 c 1.547,-1.031 3.977,-2.062 6.701,-2.062 5.008,0 8.322,3.683 8.322,11.121 0,5.671 -1.84,10.973 -7.216,10.973 -3.094,0 -5.744,-1.62 -7.807,-4.198 L 0,0 z m 0,-7.807 0,-16.939 -8.986,0 0,51.185 L 0,27.913 0,23.642 c 2.65,2.945 6.26,4.271 9.868,4.271 8.544,0 14.361,-6.775 14.361,-18.191 C 24.229,-1.989 17.896,-9.5 7.07,-9.5 4.418,-9.5 1.84,-8.689 0,-7.807"
             style="fill:#ffffff;fill-opacity:1;fill-rule:nonzero;stroke:none"
             id="path272" /></g><g
           id="g274"
           transform="translate(389.8184,2147.1504)"><path
             d="m 0,0 c -2.578,-6.997 -6.113,-13.257 -14.51,-13.257 -2.135,0 -4.933,0.368 -6.922,1.4 l 1.473,6.48 c 1.179,-0.515 3.389,-0.883 4.566,-0.883 4.198,0 6.408,4.491 8.913,11.709 l -13.995,33.952 9.575,0 8.617,-22.169 7.586,22.169 9.206,0 L 0,0 z"
             style="fill:#ffffff;fill-opacity:1;fill-rule:nonzero;stroke:none"
             id="path276" /></g><g
           id="g278"
           transform="translate(409.0508,2185.1289)"><path
             d="m 0,0 -3.902,0 0,1.151 9.179,0 0,-1.151 -3.902,0 0,-10.365 -1.375,0 L 0,0 z"
             style="fill:#ffffff;fill-opacity:1;fill-rule:nonzero;stroke:none"
             id="path280" /></g><g
           id="g282"
           transform="translate(416.2187,2186.2803)"><path
             d="M 0,0 1.65,0 5.725,-9.385 9.833,0 l 1.53,0 0,-11.517 -1.377,0 0,8.715 -3.867,-8.715 -0.857,0 -3.886,8.785 0,-8.785 -1.376,0 L 0,0 z"
             style="fill:#ffffff;fill-opacity:1;fill-rule:nonzero;stroke:none"
             id="path284" /></g><g
           id="g286"
           transform="translate(269.873,2189.2334)"><path
             d="m 0,0 c -10.753,0 -19.468,-8.715 -19.468,-19.47 0,-10.753 8.715,-19.468 19.468,-19.468 10.755,0 19.471,8.715 19.471,19.468 C 19.471,-8.715 10.755,0 0,0"
             style="fill:#cc2f6f;fill-opacity:1;fill-rule:nonzero;stroke:none"
             id="path288" /></g><g
           id="g290"
           transform="translate(261.8633,2169.5449)"><path
             d="m 0,0 c 0,3.141 0,6.28 0.001,9.421 0,0.827 0.341,1.097 1.138,0.848 C 1.465,10.166 1.763,9.969 2.066,9.8 7.268,6.919 12.465,4.031 17.672,1.157 18.148,0.895 18.479,0.583 18.479,0.005 18.477,-0.571 18.148,-0.886 17.672,-1.149 12.523,-3.991 7.384,-6.849 2.238,-9.697 1.841,-9.917 1.445,-10.175 1.016,-10.292 0.295,-10.491 0.002,-10.227 0.001,-9.488 -0.002,-6.324 0,-3.163 0,0"
             style="fill:#ffffff;fill-opacity:1;fill-rule:evenodd;stroke:none"
             id="path292" /></g></g></g><text
       transform="matrix(1,0,0,-1,730.1494,966.2881)"
       id="text294"><tspan
         style="fill:#828282;fill-opacity:1;fill-rule:nonzero;stroke:none;font-family:Myriad Pro;font-variant:normal;font-weight:normal;font-stretch:normal;font-size:33;writing-mode:lr;-inkscape-font-specification:VarelaRound-Regular"
         x="0 15.114 33.231 43.692 60.225 87.747 94.743 102.465 121.242 134.31 152.493 180.015 187.011 205.623 223.74 231.528 249.645 260.436 267.432 280.5 288.222 299.145 306.141 322.047 349.569 366.102 376.926 383.757"
         y="0"
         sodipodi:role="line"
         id="tspan296">Lorem ipsum dolor sit amet, </tspan><tspan
         style="fill:#828282;fill-opacity:1;fill-rule:nonzero;stroke:none;font-family:Myriad Pro;font-variant:normal;font-weight:normal;font-stretch:normal;font-size:33;writing-mode:lr;-inkscape-font-specification:VarelaRound-Regular"
         x="0 14.586 32.703 51.018 64.086 80.619 95.832 106.557 123.09 134.013 152.196 162.987 169.983 185.889 204.501 212.223 231 238.722 251.79 266.574 274.296 292.611 311.058 318.054 334.587 342.375 350.097 360.9177"
         y="39.6"
         sodipodi:role="line"
         id="tspan298">consectetur adipiscing elit.</tspan></text>
<text
       transform="matrix(0.99998889,0,0,-1,730.1494,1016.5049)"
       id="text300"><tspan
         style="fill:#333333;fill-opacity:1;fill-rule:nonzero;stroke:none;font-family:Myriad Pro;font-variant:normal;font-weight:normal;font-stretch:normal;font-size:36;writing-mode:lr;-inkscape-font-specification:VarelaRound-Regular"
         x="0 17.712 31.968 48.096 67.932 84.06 104.04"
         y="0"
         sodipodi:role="line"
         id="tspan302">Escucha</tspan></text>
<text
       transform="matrix(1,0,0,-1,218.1484,636.2559)"
       id="text304"><tspan
         style="fill:#828282;fill-opacity:1;fill-rule:nonzero;stroke:none;font-family:Myriad Pro;font-variant:normal;font-weight:normal;font-stretch:normal;font-size:33;writing-mode:lr;-inkscape-font-specification:VarelaRound-Regular"
         x="0 15.114 33.231 43.692 60.225 87.747 94.743 102.465 121.242 134.31 152.493 180.015 187.011 205.623 223.74 231.528 249.645 260.436 267.432 280.5 288.222 299.145 306.141 322.047 349.569 366.102 376.926 383.757"
         y="0"
         sodipodi:role="line"
         id="tspan306">Lorem ipsum dolor sit amet, </tspan><tspan
         style="fill:#828282;fill-opacity:1;fill-rule:nonzero;stroke:none;font-family:Myriad Pro;font-variant:normal;font-weight:normal;font-stretch:normal;font-size:33;writing-mode:lr;-inkscape-font-specification:VarelaRound-Regular"
         x="0 14.586 32.703 51.018 64.086 80.619 95.832 106.557 123.09 134.013 152.196 162.987 169.983 185.889 204.501 212.223 231 238.722 251.79 266.574 274.296 292.611 311.058 318.054 334.587 342.375 350.097 360.9177"
         y="39.6"
         sodipodi:role="line"
         id="tspan308">consectetur adipiscing elit.</tspan></text>
<text
       transform="matrix(1,0,0,-1,218.1484,686.4727)"
       id="text310"><tspan
         style="fill:#333333;fill-opacity:1;fill-rule:nonzero;stroke:none;font-family:Myriad Pro;font-variant:normal;font-weight:normal;font-stretch:normal;font-size:36;writing-mode:lr;-inkscape-font-specification:VarelaRound-Regular"
         x="0 20.484 40.248 70.272 90.756 108.108 120.744 132.444"
         y="0"
         sodipodi:role="line"
         id="tspan312">Comparte</tspan></text>
<text
       transform="matrix(1,0,0,-1,730.1494,322.2881)"
       id="text314"><tspan
         style="fill:#828282;fill-opacity:1;fill-rule:nonzero;stroke:none;font-family:Myriad Pro;font-variant:normal;font-weight:normal;font-stretch:normal;font-size:33;writing-mode:lr;-inkscape-font-specification:VarelaRound-Regular"
         x="0 15.114 33.231 43.692 60.225 87.747 94.743 102.465 121.242 134.31 152.493 180.015 187.011 205.623 223.74 231.528 249.645 260.436 267.432 280.5 288.222 299.145 306.141 322.047 349.569 366.102 376.926 383.757"
         y="0"
         sodipodi:role="line"
         id="tspan316">Lorem ipsum dolor sit amet, </tspan><tspan
         style="fill:#828282;fill-opacity:1;fill-rule:nonzero;stroke:none;font-family:Myriad Pro;font-variant:normal;font-weight:normal;font-stretch:normal;font-size:33;writing-mode:lr;-inkscape-font-specification:VarelaRound-Regular"
         x="0 14.586 32.703 51.018 64.086 80.619 95.832 106.557 123.09 134.013 152.196 162.987 169.983 185.889 204.501 212.223 231 238.722 251.79 266.574 274.296 292.611 311.058 318.054 334.587 342.375 350.097 360.9177"
         y="39.6"
         sodipodi:role="line"
         id="tspan318">consectetur adipiscing elit.</tspan></text>
<text
       transform="matrix(1,0,0,-1,730.1494,372.5049)"
       id="text320"><tspan
         style="fill:#333333;fill-opacity:1;fill-rule:nonzero;stroke:none;font-family:Myriad Pro;font-variant:normal;font-weight:normal;font-stretch:normal;font-size:36;writing-mode:lr;-inkscape-font-specification:VarelaRound-Regular"
         x="0 20.772 32.184 50.22 67.572 75.204 92.16 99.792 114.048 122.472 142.596 162.432 180.468 188.1 208.584 217.08 234.144 251.1 259.596 268.02 282.276 294.192"
         y="0"
         sodipodi:role="line"
         id="tspan322">Crea y sigue playlists</tspan></text>
<g
       id="g324"><g
         id="g326"
         clip-path="url(#clipPath328)"><g
           id="g332"
           transform="matrix(451,0,0,306.23399,273.32422,820.06093)"><image
             sodipodi:absref="/home/keoh/Escritorio/sfotipy/design/desktop/svg/sfotip_desktop_img1.png"
             xlink:href="sfotip_desktop_img1.png"
             id="image334"
             transform="matrix(1,0,0,-1,0,1)"
             height="1"
             width="1" /></g></g></g><g
       id="g336"><g
         id="g338"
         clip-path="url(#clipPath340)"><g
           id="g344"
           transform="matrix(452,0,0,300,716.13477,494.17578)"><image
             sodipodi:absref="/home/keoh/Escritorio/sfotipy/design/desktop/svg/sfotip_desktop_img2.png"
             xlink:href="sfotip_desktop_img2.png"
             id="image346"
             transform="matrix(1,0,0,-1,0,1)"
             height="1"
             width="1" /></g></g></g><g
       id="g348"><g
         id="g350"
         clip-path="url(#clipPath352)"><path
           d="M 1399,0 -1,0 l 0,68.732 1400,0 L 1399,0 z"
           style="fill:#333333;fill-opacity:1;fill-rule:nonzero;stroke:none"
           id="path356" /></g></g><text
       transform="matrix(1,0,0,-1,355.8726,32.3662)"
       id="text358"><tspan
         style="fill:#ffffff;fill-opacity:1;fill-rule:nonzero;stroke:none;font-family:Helvetica Neue;font-variant:normal;font-weight:normal;font-stretch:normal;font-size:18;writing-mode:lr;-inkscape-font-specification:HelveticaNeue"
         x="0 9.666 20.34 30.672 40.68 46.35 51.354 61.362"
         y="0"
         sodipodi:role="line"
         id="tspan360">about us</tspan></text>
<g
       id="g362"><g
         id="g364"
         clip-path="url(#clipPath366)"><g
           id="g370"
           transform="translate(355.873,30.5664)"><path
             d="M 0,0 0,0 70.361,0 0,0 z"
             style="fill:none;stroke:#ffffff;stroke-opacity:1;stroke-width:0.9;stroke-linecap:butt;stroke-linejoin:miter;stroke-miterlimit:10;stroke-dasharray:none"
             id="path372" /></g></g></g><text
       transform="matrix(1,0,0,-1,448.2256,32.3662)"
       id="text374"><tspan
         style="fill:#ffffff;fill-opacity:1;fill-rule:nonzero;stroke:none;font-family:Helvetica Neue;font-variant:normal;font-weight:normal;font-stretch:normal;font-size:18;writing-mode:lr;-inkscape-font-specification:HelveticaNeue"
         x="0 3.996 13.662 23.994 33.66"
         y="0"
         sodipodi:role="line"
         id="tspan376">legal</tspan></text>
<g
       id="g378"><g
         id="g380"
         clip-path="url(#clipPath382)"><g
           id="g386"
           transform="translate(448.2256,30.5664)"><path
             d="M 0,0 0,0 37.655,0 0,0 z"
             style="fill:none;stroke:#ffffff;stroke-opacity:1;stroke-width:0.9;stroke-linecap:butt;stroke-linejoin:miter;stroke-miterlimit:10;stroke-dasharray:none"
             id="path388" /></g><g
           id="g390"
           transform="translate(204.3623,26.542)"><path
             d="m 0,0 c -2.328,0 -5.327,0.749 -7.024,1.736 l 0.947,3.788 c 1.499,-0.867 4.223,-1.656 6.235,-1.656 1.421,0 2.446,0.551 2.446,1.617 0,1.342 -0.829,1.776 -4.064,3.038 -3.038,1.185 -5.013,2.249 -5.013,5.605 0,3.828 3.119,5.92 7.183,5.92 2.289,0 4.696,-0.711 6.039,-1.461 l -0.948,-3.75 c -1.026,0.514 -3.156,1.106 -4.775,1.106 -1.776,0 -2.604,-0.553 -2.604,-1.579 0,-1.025 1.302,-1.5 3.552,-2.328 C 5.485,10.733 7.459,8.997 7.459,5.92 7.459,2.013 3.947,0 0,0"
             style="fill:#ffffff;fill-opacity:1;fill-rule:nonzero;stroke:none"
             id="path392" /></g><g
           id="g394"
           transform="translate(212.8076,46.0371)"><path
             d="m 0,0 2.724,0 0,1.617 c 0,6.276 4.104,8.09 7.537,8.09 0.71,0 1.736,-0.078 2.171,-0.236 l -0.553,-3.828 -0.474,0 C 8.051,5.643 7.538,3.906 7.538,1.5 l 0,-1.5 3.907,0 0,-3.71 -3.907,0 0,-15.233 -4.814,0 0,15.233 L 0,-3.71 0,0 z"
             style="fill:#ffffff;fill-opacity:1;fill-rule:nonzero;stroke:none"
             id="path396" /></g><g
           id="g398"
           transform="translate(247.4971,46.0371)"><path
             d="m 0,0 0.001,0 2.328,4.695 2.446,0 0,-4.695 5.131,0 0,-3.671 -5.131,0 0,-9.787 c 0,-1.105 0.475,-1.894 1.5,-1.894 1.145,0 2.565,0.434 3.355,0.711 l 0.552,-3.552 c -1.026,-0.67 -3.037,-1.302 -4.774,-1.302 -3.355,0 -5.407,1.578 -5.407,5.643 l 0,10.181 L 0,-3.671 0,0 z"
             style="fill:#ffffff;fill-opacity:1;fill-rule:nonzero;stroke:none"
             id="path400" /></g><g
           id="g402"
           transform="translate(260.7178,45.6025)"><path
             d="m 0,0 4.816,0.987 0,-19.496 -4.816,0 L 0,0 z m -0.67,6.945 c 0,1.698 1.342,3.038 3.078,3.038 1.776,0 3.196,-1.34 3.196,-3.038 0,-1.657 -1.42,-2.999 -3.196,-2.999 -1.736,0 -3.078,1.342 -3.078,2.999"
             style="fill:#ffffff;fill-opacity:1;fill-rule:nonzero;stroke:none"
             id="path404" /></g><g
           id="g406"
           transform="translate(274.4512,31.6328)"><path
             d="m 0,0 c 0.829,-0.554 2.131,-1.105 3.591,-1.105 2.683,0 4.459,1.973 4.459,5.959 0,3.039 -0.987,5.879 -3.867,5.879 C 2.525,10.733 1.105,9.865 0,8.484 L 0,0 z m 0,-4.184 0,-9.076 -4.815,0 0,27.427 4.815,0.79 0,-2.289 c 1.421,1.578 3.354,2.289 5.288,2.289 4.578,0 7.695,-3.631 7.695,-9.748 0,-6.275 -3.393,-10.3 -9.195,-10.3 -1.421,0 -2.802,0.435 -3.788,0.907"
             style="fill:#ffffff;fill-opacity:1;fill-rule:nonzero;stroke:none"
             id="path408" /></g><g
           id="g410"
           transform="translate(298.9189,24.9238)"><path
             d="m 0,0 c -1.381,-3.75 -3.275,-7.104 -7.775,-7.104 -1.144,0 -2.643,0.198 -3.709,0.75 l 0.789,3.473 c 0.632,-0.275 1.816,-0.473 2.447,-0.473 2.249,0 3.434,2.407 4.775,6.274 l -7.498,18.193 5.13,0 4.617,-11.879 4.066,11.879 4.932,0 L 0,0 z"
             style="fill:#ffffff;fill-opacity:1;fill-rule:nonzero;stroke:none"
             id="path412" /></g><g
           id="g414"
           transform="translate(309.2246,45.2744)"><path
             d="m 0,0 -2.091,0 0,0.616 4.918,0 0,-0.616 -2.091,0 0,-5.554 L 0,-5.554 0,0 z"
             style="fill:#ffffff;fill-opacity:1;fill-rule:nonzero;stroke:none"
             id="path416" /></g><g
           id="g418"
           transform="translate(313.0654,45.8906)"><path
             d="M 0,0 0.885,0 3.067,-5.028 5.269,0 l 0.82,0 0,-6.17 -0.737,0 0,4.67 -2.073,-4.67 -0.46,0 -2.082,4.707 0,-4.707 L 0,-6.17 0,0 z"
             style="fill:#ffffff;fill-opacity:1;fill-rule:nonzero;stroke:none"
             id="path420" /></g><g
           id="g422"
           transform="translate(234.6475,47.4736)"><path
             d="m 0,0 c -5.762,0 -10.432,-4.67 -10.432,-10.433 0,-5.761 4.67,-10.431 10.432,-10.431 5.763,0 10.434,4.67 10.434,10.431 C 10.434,-4.67 5.763,0 0,0"
             style="fill:#ffffff;fill-opacity:1;fill-rule:nonzero;stroke:none"
             id="path424" /></g><g
           id="g426"
           transform="translate(230.3555,36.9238)"><path
             d="m 0,0 c 0,1.683 0,3.365 0.001,5.048 0,0.443 0.182,0.588 0.609,0.454 C 0.785,5.447 0.944,5.342 1.107,5.251 3.894,3.707 3.888,3.7 6.679,2.16 6.934,2.02 9.901,0.312 9.901,0.002 9.9,-0.307 9.725,-0.475 9.47,-0.616 6.71,-2.139 3.956,-3.67 1.199,-5.196 0.986,-5.314 0.774,-5.452 0.544,-5.516 0.158,-5.621 0.001,-5.48 0.001,-5.084 -0.001,-3.389 0,-1.695 0,0"
             style="fill:#333333;fill-opacity:1;fill-rule:evenodd;stroke:none"
             id="path428" /></g></g></g><g
       id="g430"><g
         id="g432"
         clip-path="url(#clipPath434)"><g
           id="g438"
           transform="matrix(449,0,0,300,156.55273,175.02051)"><image
             sodipodi:absref="/home/keoh/Escritorio/sfotipy/design/desktop/svg/sfotip_desktop_img3.png"
             xlink:href="sfotip_desktop_img3.png"
             id="image440"
             transform="matrix(1,0,0,-1,0,1)"
             height="1"
             width="1" /></g></g></g></g></svg>